# xmcd
#
# Track frame offsets: 
#        150
#        17626
#        36580
#        58202
#        79214
#        100687
#        117224
#        136068
#        152475
#        166614
#        207554
#        224709
#
# Disc length: 3353 seconds
#
# Revision: 0
# Processed by: cddbd v1.5.2PL0 Copyright (c) Steve Scherf et al.
# Submitted via: ExactAudioCopyFreeDBPlugin 1.0
#
DISCID=a40d170c
DTITLE=Albert Castiglia - Living the Dream
DYEAR=2012
DGENRE=Blues
TTITLE0=Living the Dream
TTITLE1=The Man
TTITLE2=Freddie's Boogie
TTITLE3=Directly From My Heart To You
TTITLE4=Sometime You Win
TTITLE5=Public Enemy #9
TTITLE6=Lovin Cup
TTITLE7=Fat Cat
TTITLE8=I Want Her For Myself
TTITLE9=Walk The Backstreets
TTITLE10=Call Me When You Need Me
TTITLE11=Parchman Farm
EXTD=
EXTT0=
EXTT1=
EXTT2=
EXTT3=
EXTT4=
EXTT5=
EXTT6=
EXTT7=
EXTT8=
EXTT9=
EXTT10=
EXTT11=
PLAYORDER=
